# xmcd
#
# Track frame offsets:
#	150
#	13802
#	24750
#	36525
#	49840
#	62270
#	75840
#	86225
#	100787
#	113935
#	126117
#	140235
#	153392
#	167042
#	180172
#	193985
#	204317
#	218205
#	233137
#	247052
#	258270
#
# Disc length: 3640 seconds
#
# Revision: 1
# Processed by: cddbd v1.5.2PL0 Copyright (c) Steve Scherf et al.
# Submitted via: audiograbber 1.83.01
#
DISCID=1d0e3615
DTITLE=Verschiedene - Albernes und Frivoles
DYEAR=1998
DGENRE=Schlager
TTITLE0=Odeon-Tanz-Orchester - Mein Papagei frißt keine harten Eier 
TTITLE1=Irene Ambrus, Orchester - Die Susi bläst das Saxophon 
TTITLE2=Paul O' Montis - Mein Bruder macht im Tonfilm die Geräusche (1930)
TTITLE3=Odeon-Tanz-Orchester, Engelbert Milde - Herr Lehmann hat die Lu gezwick
TTITLE3=t 
TTITLE4=The Two Jazzers - Bimbambulla
TTITLE5=Luigi Bernauer, Orchester - Onkel Friedrich hat 'ne neue Braut ! 
TTITLE6=Die Abels - Ich steh'  mit Ruth gut 
TTITLE7=Curt Bois, Orch. Peter Kreuder - Der kleine Wolf aus Olmütz 
TTITLE8=Trude Hesterberg, Orchester - Lieber kleiner Eintänzer 
TTITLE9=Max Hansen, Orchester - Und als der Herrgott Mai gemacht
TTITLE10=Fritz Neumann, Orchester - Hatschi, Hatschi 
TTITLE11=Fritzi Frou, Orch. Walter Sieber - Heut'  war ich bei der Frieda 
TTITLE12=Willy Rosen am Flügel - Das find'  ich reizend von Lulu 
TTITLE13=Austin Egen, Klavier - Bei Fräulein Lisbeth im Parterre
TTITLE14=Siegfried Arno, Trude Lieske, 2 Klaviere - Mensch, du hast  'ne Zillef
TTITLE14=igur 
TTITLE15=Fritz Imhoff, Orchester - Waren Sie schon in Elberfeld ?
TTITLE16=Paul Heidemann, "Red" Robers u.sein Ultraphon-Jazz-Orch. - Meine Oma f
TTITLE16=ährt Motorrad
TTITLE17=Max Kuttner, Orchester - Ich hab'  das Fäulein Helen'  baden seh 'n (1
TTITLE17=925)
TTITLE18=Franzi Ressel, Orchester - Was machst du mit dem Knie, lieber Hans... 
TTITLE18=?
TTITLE19=Hermann Staebner, Orchester - Wenn die kleinen Mädels nah' an sechzehn
TTITLE19=
TTITLE20=Hermann Leopoldi am Klavier - Ich red'  mir ein, es geht mir gut 
EXTD=
EXTT0=
EXTT1=
EXTT2=
EXTT3=
EXTT4=
EXTT5=
EXTT6=
EXTT7=
EXTT8=
EXTT9=
EXTT10=
EXTT11=
EXTT12=
EXTT13=
EXTT14=
EXTT15=
EXTT16=
EXTT17=
EXTT18=
EXTT19=
EXTT20=
PLAYORDER=
